<svg id="Capa_1" enable-background="new 0 0 497 497" height="512" viewBox="0 0 497 497" width="512" xmlns="http://www.w3.org/2000/svg"><g><path d="m248.5 0v497c137.243 0 248.5-111.257 248.5-248.5s-111.257-248.5-248.5-248.5z" fill="#3f43bd"/><path d="m467 248.5c0-137.243-97.826-248.5-218.5-248.5-137.243 0-248.5 111.257-248.5 248.5s111.257 248.5 248.5 248.5c120.674 0 218.5-111.257 218.5-248.5z" fill="#405acc"/><path d="m248.5 60v377c104.106 0 188.5-84.394 188.5-188.5s-84.394-188.5-188.5-188.5z" fill="#4271db"/><path d="m407 248.5c0-104.106-70.963-188.5-158.5-188.5-104.106 0-188.5 84.394-188.5 188.5s84.394 188.5 188.5 188.5c87.537 0 158.5-84.394 158.5-188.5z" fill="#3992e3"/><circle cx="248.5" cy="248.5" fill="#4271db" r="128.5"/><g fill="#ffe9c4"><path d="m178.85 178.85 26.073 8.842 22.065-16.466-.352 27.529 22.478 15.897-26.29 8.172-8.173 26.29-15.896-22.478-27.529.352 16.466-22.065z"/><path d="m275.724 275.724c-32.493 32.493-83.441 35.27-119.097 8.346 4.8 12.418 12.203 24.061 22.223 34.081 38.467 38.467 100.833 38.467 139.3 0s38.467-100.833 0-139.3c-10.02-10.02-21.663-17.423-34.081-22.223 26.925 35.655 24.147 86.603-8.345 119.096z"/></g></g></svg>